<svg xmlns="http://www.w3.org/2000/svg" xmlns:xlink="http://www.w3.org/1999/xlink" version="1.1" width="1000" height="1000" viewBox="0 0 1000 1000" xml:space="preserve">
<desc>Created with Fabric.js 3.5.0</desc>
<defs>
</defs>
<rect x="0" y="0" width="100%" height="100%" fill="#ffffff"/>
<g transform="matrix(0.178 0 0 -0.178 500.0623 413.3947)" id="467351">
<path style="stroke: none; stroke-width: 1; stroke-dasharray: none; stroke-linecap: butt; stroke-dashoffset: 0; stroke-linejoin: miter; stroke-miterlimit: 4; is-custom-font: none; font-file-url: none; fill: rgb(163,103,155); fill-rule: nonzero; opacity: 1;" vector-effect="non-scaling-stroke" transform=" translate(-3700.9793, -3699.0653)" d="M 3929 6005 c -30 -16 -159 -172 -212 -255 c -50 -80 -110 -204 -141 -290 c -15 -41 -29 -81 -32 -89 c -3 -8 -28 31 -57 90 c -55 110 -137 227 -206 293 c -61 59 -90 55 -162 -22 c -122 -129 -223 -319 -267 -500 c -14 -59 -27 -108 -28 -110 c -1 -2 -24 12 -51 31 c -156 112 -386 185 -595 190 c -117 3 -124 -4 -122 -118 c 4 -205 73 -423 188 -594 c 20 -30 35 -55 34 -56 c -2 -1 -46 -12 -98 -24 c -163 -39 -304 -106 -435 -206 c -182 -140 -183 -165 -8 -306 c 136 -108 318 -191 500 -225 c 132 -24 364 -15 497 19 c 127 34 299 117 403 196 c 163 123 307 306 376 479 c 17 42 37 56 37 27 c 0 -9 16 -57 35 -107 l 35 -91 l -46 -73 c -164 -265 -415 -465 -704 -564 c -184 -63 -430 -85 -615 -57 c -268 42 -508 155 -703 331 c -81 73 -108 81 -147 41 c -43 -42 -27 -84 58 -157 c 143 -123 314 -224 477 -282 c 41 -15 82 -29 89 -32 c 9 -3 -30 -27 -91 -57 c -114 -57 -230 -140 -298 -213 c -63 -68 -52 -93 88 -205 c 135 -108 303 -189 467 -224 c 44 -10 81 -19 83 -20 c 1 -1 -14 -26 -34 -56 c -98 -143 -166 -339 -185 -534 c -17 -171 0 -192 146 -180 c 216 18 404 81 564 189 c 30 20 55 35 56 34 c 1 -2 10 -39 20 -83 c 33 -154 110 -319 210 -450 c 118 -155 154 -169 231 -94 c 101 98 199 258 253 411 c 88 254 82 556 -16 802 c -111 278 -306 488 -577 622 c -60 29 -103 55 -95 58 c 8 2 32 10 54 17 c 22 6 66 22 98 35 c 67 28 58 31 192 -60 c 122 -83 264 -228 348 -353 c 162 -241 237 -510 224 -798 c -15 -316 -131 -601 -341 -833 c -73 -81 -81 -108 -41 -147 c 41 -42 71 -34 138 37 c 126 136 248 338 303 503 c 15 44 29 84 31 88 c 3 5 28 -38 57 -95 c 55 -110 138 -228 204 -292 c 72 -69 117 -49 228 98 c 101 133 175 294 209 451 c 10 44 19 81 20 83 c 1 1 26 -14 56 -34 c 171 -115 382 -182 591 -187 c 117 -3 124 4 121 121 c -5 209 -72 420 -187 591 c -20 30 -35 55 -34 56 c 2 1 39 10 83 20 c 120 26 269 87 373 155 c 111 71 222 176 222 208 c 0 47 -154 180 -300 260 c -166 89 -342 132 -547 132 c -194 0 -349 -37 -525 -125 c -226 -114 -431 -332 -533 -567 c -16 -37 -32 -65 -36 -63 c -3 3 -9 18 -13 35 c -3 17 -19 65 -36 107 l -30 76 l 47 75 c 196 315 502 528 875 608 c 130 28 391 26 527 -4 c 241 -54 443 -157 619 -316 c 49 -44 81 -66 98 -66 c 28 0 74 40 74 65 c 0 89 -313 312 -560 399 c -41 15 -82 29 -89 32 c -9 3 30 27 90 57 c 117 58 232 140 297 211 c 52 57 51 80 -6 139 c -123 128 -354 251 -547 292 c -44 10 -81 19 -83 20 c -1 1 14 26 34 56 c 115 171 184 389 188 594 c 2 114 -5 121 -122 118 c -209 -5 -420 -72 -591 -187 c -30 -20 -55 -35 -56 -34 c -1 2 -10 39 -20 83 c -42 197 -162 422 -294 549 c -61 59 -90 55 -162 -22 c -146 -155 -249 -365 -288 -586 c -18 -101 -14 -305 10 -419 c 58 -288 228 -547 471 -720 c 55 -39 166 -99 248 -134 c 18 -8 21 -12 10 -16 c -8 -2 -60 -21 -114 -41 l -99 -36 l -75 46 c -316 198 -528 502 -608 874 c -28 132 -26 392 4 529 c 54 241 157 443 316 619 c 73 81 81 108 41 147 c -27 28 -48 31 -86 10 z m -692 -417 c 37 -41 113 -166 143 -236 c 58 -138 75 -222 75 -392 c 0 -187 -20 -281 -95 -435 c -48 -100 -131 -225 -150 -225 c -5 0 -32 33 -61 73 c -217 308 -247 702 -79 1037 c 39 78 124 200 138 200 c 5 0 18 -10 29 -22 z m 1009 -40 c 226 -307 255 -741 73 -1067 c -41 -73 -118 -181 -129 -181 c -18 0 -104 128 -150 225 c -65 134 -91 239 -97 395 c -6 141 17 280 64 400 c 43 110 157 290 184 290 c 5 0 30 -28 55 -62 z m -1918 -364 c 154 -32 288 -92 411 -185 c 79 -59 81 -62 81 -102 c 0 -74 29 -222 60 -312 c 17 -48 30 -89 27 -91 c -2 -2 -43 10 -92 26 c -98 33 -235 60 -307 60 l -47 0 l -60 81 c -102 134 -179 323 -197 478 l -7 61 l 27 0 c 15 0 61 -7 104 -16 z m 2872 -8 c 0 -36 -26 -164 -45 -221 c -31 -93 -95 -213 -156 -294 l -60 -81 l -49 0 c -66 0 -227 -33 -319 -64 c -41 -14 -76 -24 -78 -23 c -1 2 11 43 27 92 c 33 98 60 235 60 307 l 0 47 l 81 60 c 82 62 205 127 294 156 c 68 21 173 43 213 44 c 27 1 32 -2 32 -23 z m -2506 -770 c 54 -14 135 -43 180 -65 c 84 -41 226 -135 226 -150 c 0 -14 -105 -89 -184 -132 c -266 -143 -589 -158 -868 -39 c -103 44 -258 147 -258 172 c 0 14 122 99 200 138 c 86 43 217 86 305 100 c 103 16 288 5 399 -24 z m 2402 23 c 100 -14 219 -51 314 -99 c 80 -40 200 -124 200 -139 c 0 -14 -74 -71 -145 -113 c -141 -84 -286 -127 -457 -135 c -187 -9 -353 27 -514 112 c -85 44 -194 121 -194 136 c 0 12 135 106 202 140 c 177 90 395 126 594 98 z m -1341 -321 c 63 -94 259 -290 353 -353 c 39 -27 72 -51 72 -55 c 0 -4 -33 -28 -72 -55 c -94 -63 -290 -259 -353 -352 c -27 -40 -51 -73 -55 -73 c -4 0 -28 33 -55 73 c -63 93 -259 289 -352 352 c -40 27 -73 51 -73 55 c 0 4 33 28 73 55 c 93 63 289 259 352 353 c 27 39 51 72 55 72 c 4 0 28 -33 55 -72 z m -1138 -663 c 107 -20 210 -56 299 -104 c 78 -42 184 -118 184 -132 c 0 -4 -28 -28 -62 -52 c -321 -228 -707 -259 -1053 -85 c -74 38 -195 122 -195 136 c 0 27 156 128 271 176 c 170 70 384 94 556 61 z m 2534 -5 c 55 -11 135 -34 177 -51 c 110 -44 282 -153 282 -180 c 0 -15 -121 -99 -200 -139 c -162 -81 -268 -105 -460 -104 c -170 1 -282 25 -422 92 c -84 40 -228 135 -228 151 c 0 15 110 92 194 136 c 204 107 434 140 657 95 z m -1891 -396 c 240 -318 265 -767 62 -1109 c -42 -71 -99 -145 -113 -145 c -15 0 -99 120 -139 200 c -142 282 -144 616 -5 896 c 44 88 129 214 145 214 c 4 0 27 -25 50 -56 z m 984 -6 c 67 -90 132 -229 161 -343 c 62 -241 36 -484 -75 -705 c -39 -78 -124 -200 -138 -200 c -14 0 -47 40 -95 116 c -223 347 -205 809 44 1139 c 23 30 45 55 49 55 c 5 0 29 -28 54 -62 z m -1334 -132 c 0 -3 -13 -45 -30 -93 c -32 -96 -60 -241 -60 -309 c 0 -42 -2 -44 -81 -103 c -123 -93 -257 -153 -411 -185 c -111 -23 -128 -22 -128 9 c 0 34 28 167 47 225 c 29 87 94 210 154 289 l 60 81 l 47 0 c 72 0 209 27 302 59 c 89 31 100 34 100 27 z m 1675 -26 c 98 -33 235 -60 306 -60 c 46 0 48 -1 102 -72 c 68 -90 120 -183 151 -274 c 26 -74 56 -207 56 -249 c 0 -30 -14 -32 -122 -11 c -155 30 -294 93 -425 193 c -72 54 -73 56 -73 102 c 0 72 -28 214 -60 306 c -29 82 -33 95 -27 95 c 2 0 43 -13 92 -30 z" stroke-linecap="round"/>
</g>
<g transform="matrix(1 0 0 1 500 896.7792)" style="" id="18658">
		
<path xml:space="preserve" font-family="Allerta" font-size="78" font-style="normal" font-weight="normal" style="stroke: none; stroke-width: 1; stroke-dasharray: none; stroke-linecap: butt; stroke-dashoffset: 0; stroke-linejoin: miter; stroke-miterlimit: 4; is-custom-font: none; font-file-url: none; fill: rgb(163,103,155); fill-rule: nonzero; opacity: 1; white-space: pre;" d="M-319.09 6.75L-302.48-31.64L-293.19-31.64L-293.19 24.50L-302.48 24.50L-302.48-14.12L-315.05 17.11L-323.13 17.11L-335.77-14.12L-335.77 24.50L-345.06 24.50L-345.06-31.64L-335.77-31.64L-319.09 6.75ZM-271.86 24.50L-281.38 24.50L-261.73-31.56L-252.67-31.56L-233.17 24.50L-242.61 24.50L-246.65 12.85L-267.75 12.85L-271.86 24.50ZM-257.16-17.54L-265.62 6.68L-248.86 6.68L-257.16-17.54ZM-189.60 9.12L-189.60 9.12Q-189.60 12.16-190.85 15.02Q-192.11 17.88-194.40 20.05Q-196.68 22.22-200.03 23.51Q-203.38 24.81-207.65 24.81L-207.65 24.81Q-209.48 24.81-211.42 24.62Q-213.36 24.43-215.34 23.97Q-217.32 23.51-219.11 22.71Q-220.90 21.91-222.20 20.77L-222.20 20.77L-220.60 14.22Q-219.53 14.83-217.90 15.40Q-216.26 15.97-214.51 16.47Q-212.75 16.96-211.00 17.27Q-209.25 17.57-207.73 17.57L-207.73 17.57Q-203.08 17.57-200.60 15.40Q-198.13 13.23-198.13 8.96L-198.13 8.96Q-198.13 6.37-199.88 4.55Q-201.63 2.72-204.26 1.23Q-206.89-0.25-209.94-1.74Q-212.98-3.22-215.65-5.24Q-218.31-7.26-220.07-10.00Q-221.82-12.75-221.82-16.86L-221.82-16.86Q-221.82-20.59-220.45-23.49Q-219.08-26.38-216.75-28.40Q-214.43-30.42-211.34-31.48Q-208.26-32.55-204.83-32.55L-204.83-32.55Q-201.33-32.55-197.75-31.90Q-194.17-31.25-191.96-29.81L-191.96-29.81Q-192.42-28.82-193.03-27.64Q-193.63-26.46-194.17-25.43Q-194.70-24.40-195.08-23.71Q-195.46-23.03-195.54-22.95L-195.54-22.95Q-196.00-23.18-196.57-23.56Q-197.14-23.94-198.21-24.32Q-199.27-24.70-201.02-24.86Q-202.78-25.01-205.52-24.78L-205.52-24.78Q-207.04-24.63-208.41-23.90Q-209.78-23.18-210.85-22.11Q-211.92-21.05-212.53-19.71Q-213.13-18.38-213.13-17.16L-213.13-17.16Q-213.13-14.12-211.38-12.25Q-209.63-10.38-207.04-8.97Q-204.45-7.57-201.40-6.23Q-198.36-4.90-195.73-3.00Q-193.10-1.09-191.35 1.77Q-189.60 4.62-189.60 9.12ZM-134.45-3.83L-134.45-3.83Q-134.45 3.25-136.24 8.66Q-138.03 14.07-141.19 17.65Q-144.35 21.23-148.58 23.06Q-152.81 24.88-157.83 24.88L-157.83 24.88Q-162.86 24.88-167.09 23.06Q-171.32 21.23-174.48 17.65Q-177.64 14.07-179.43 8.66Q-181.22 3.25-181.22-3.83L-181.22-3.83Q-181.22-10.92-179.43-16.29Q-177.64-21.66-174.48-25.24Q-171.32-28.82-167.09-30.68Q-162.86-32.55-157.83-32.55L-157.83-32.55Q-152.81-32.55-148.58-30.68Q-144.35-28.82-141.19-25.24Q-138.03-21.66-136.24-16.29Q-134.45-10.92-134.45-3.83ZM-158.06 17.42L-158.06 17.42Q-155.24 17.42-152.69 16.31Q-150.14 15.21-148.12 12.70Q-146.10 10.18-144.96 6.11Q-143.82 2.03-143.74-3.83L-143.74-3.83Q-143.82-9.55-144.92-13.54Q-146.03-17.54-147.97-20.13Q-149.91-22.72-152.39-23.87Q-154.86-25.01-157.61-25.01L-157.61-25.01Q-160.42-25.01-162.98-23.94Q-165.53-22.88-167.55-20.32Q-169.56-17.77-170.71-13.74Q-171.85-9.70-171.93-3.83L-171.93-3.83Q-171.85 1.88-170.75 5.92Q-169.64 9.95-167.70 12.51Q-165.76 15.06-163.28 16.24Q-160.80 17.42-158.06 17.42ZM-124.70-31.64L-81.97-31.64L-81.97-25.39L-98.72-25.39L-98.72 24.50L-107.94 24.50L-107.94-25.39L-124.70-25.39L-124.70-31.64ZM-35.73-24.70L-61.55-24.70L-61.55-7.03L-38.09-7.03L-38.09-0.79L-61.55-0.79L-61.55 17.57L-35.73 17.57L-35.73 24.50L-70.85 24.50L-70.85-31.64L-35.73-31.64L-35.73-24.70ZM14.70 24.50L5.02 24.50L-5.57 4.17Q-5.80 4.17-6.18 4.20Q-6.56 4.24-7.36 4.24Q-8.16 4.24-9.79 4.24Q-11.43 4.24-14.25 4.24L-14.25 4.24L-14.25 24.50L-23.39 24.50L-23.39-31.64L-7.24-31.64Q-3.66-31.64-0.16-30.49Q3.35-29.35 6.13-27.07Q8.91-24.78 10.62-21.54Q12.33-18.31 12.33-14.27L12.33-14.27Q12.33-8.17 9.52-3.91Q6.70 0.36 1.90 2.41L1.90 2.41L14.70 24.50ZM-14.25-24.70L-14.25-2.46L-5.95-2.46Q-4.27-2.46-2.60-3.03Q-0.92-3.60 0.45-4.90Q1.82-6.19 2.66-8.52Q3.50-10.84 3.50-14.27L3.50-14.27Q3.50-15.64 3.12-17.43Q2.74-19.22 1.56-20.86Q0.37-22.50-1.76-23.60Q-3.89-24.70-7.39-24.70L-7.39-24.70L-14.25-24.70ZM34.35 24.50L24.83 24.50L44.48-31.56L53.54-31.56L73.04 24.50L63.60 24.50L59.56 12.85L38.46 12.85L34.35 24.50ZM49.05-17.54L40.59 6.68L57.35 6.68L49.05-17.54ZM93.91 4.24L93.91 24.50L84.77 24.50L84.77-31.64L100.92-31.64Q104.50-31.64 108.01-30.49Q111.51-29.35 114.29-27.07Q117.07-24.78 118.78-21.54Q120.50-18.31 120.50-14.27L120.50-14.27Q120.50-10.00 119.05-6.54Q117.60-3.07 115.01-0.71Q112.42 1.65 108.77 2.95Q105.11 4.24 100.69 4.24L100.69 4.24L93.91 4.24ZM100.77-24.70L93.91-24.70L93.91-2.46L102.29-2.46Q103.97-2.46 105.61-3.03Q107.24-3.60 108.62-4.90Q109.99-6.19 110.82-8.52Q111.66-10.84 111.66-14.27L111.66-14.27Q111.66-15.64 111.28-17.43Q110.90-19.22 109.72-20.86Q108.54-22.50 106.41-23.60Q104.27-24.70 100.77-24.70L100.77-24.70ZM140.38-31.64L140.38 24.50L131.09 24.50L131.09-31.64L140.38-31.64ZM161.71 24.50L152.19 24.50L171.84-31.56L180.90-31.56L200.40 24.50L190.96 24.50L186.92 12.85L165.82 12.85L161.71 24.50ZM176.41-17.54L167.95 6.68L184.71 6.68L176.41-17.54ZM278.71-3.83L278.71-3.83Q278.71 3.25 276.92 8.66Q275.13 14.07 271.97 17.65Q268.80 21.23 264.58 23.06Q260.35 24.88 255.32 24.88L255.32 24.88Q250.29 24.88 246.07 23.06Q241.84 21.23 238.68 17.65Q235.52 14.07 233.73 8.66Q231.94 3.25 231.94-3.83L231.94-3.83Q231.94-10.92 233.73-16.29Q235.52-21.66 238.68-25.24Q241.84-28.82 246.07-30.68Q250.29-32.55 255.32-32.55L255.32-32.55Q260.35-32.55 264.58-30.68Q268.80-28.82 271.97-25.24Q275.13-21.66 276.92-16.29Q278.71-10.92 278.71-3.83ZM255.09 17.42L255.09 17.42Q257.91 17.42 260.46 16.31Q263.02 15.21 265.03 12.70Q267.05 10.18 268.20 6.11Q269.34 2.03 269.41-3.83L269.41-3.83Q269.34-9.55 268.23-13.54Q267.13-17.54 265.19-20.13Q263.24-22.72 260.77-23.87Q258.29-25.01 255.55-25.01L255.55-25.01Q252.73-25.01 250.18-23.94Q247.63-22.88 245.61-20.32Q243.59-17.77 242.45-13.74Q241.31-9.70 241.23-3.83L241.23-3.83Q241.31 1.88 242.41 5.92Q243.52 9.95 245.46 12.51Q247.40 15.06 249.88 16.24Q252.35 17.42 255.09 17.42ZM291.66-31.64L300.95-31.64L300.95 17.57L326.77 17.57L326.77 24.50L291.66 24.50L291.66-31.64ZM345.51-31.64L345.51 24.50L336.22 24.50L336.22-31.64L345.51-31.64Z"/></g>
</svg>